<svg width="949" height="627" fill="none" xmlns="http://www.w3.org/2000/svg"><path fill-rule="evenodd" clip-rule="evenodd" d="M457.71 94c65.46 0 124.65 19.16 167.16 50.04v-.02c64.88 43.88 224.24 89.14 224.24 89.14 32.08 16.98 150.4 227.98 101.38 368.64-7.94 22.8-20.26 24.7-20.26 24.7H147.42C96.18 620.97 98 568.58 98 533.53c0-26.47 8.57-42.6 29.02-73l-.5-.17c49.86-96.9 97.37-73.42 125.12-211.32v.02C260.36 162.38 334.01 94 457.72 94z" fill="url(#paint0_linear)"/><path fill-rule="evenodd" clip-rule="evenodd" d="M950.73 386.64V511.1H118.52c.17-26.25 85.41-44.6 103.75-66.1l-.5-.17c14.05-18.84 6.55-45.5 16.7-66.7l65.69.18V262.48h27.07l26.43-26.72 25.14 26.72h31.59v-38.4h44.48v-85.74h56.75a9 9 0 0 1 9 9v152.5h55.45v36.88h94.11V267.6h13.54v-14.08h23.2v-22.11h12.26v22.11h25.78v14.08h10.96v59.51h48.35V290h14.91v-11.06h48.35V290h17.96v58.87h35.45v37.77h25.79z" fill="#CFDEFF"/><path fill-rule="evenodd" clip-rule="evenodd" d="M563.02 205.44h3.66a4.35 4.35 0 0 1-1.76-3.5 4.3 4.3 0 0 1 4.27-4.31h26.43a4.34 4.34 0 1 1 2.5 7.81h16.82a2.6 2.6 0 0 1 2.57 2.6 2.6 2.6 0 0 1-2.57 2.61h-51.92a2.6 2.6 0 0 1-2.57-2.6 2.6 2.6 0 0 1 2.57-2.61zM666.25 147.81h3.66a4.34 4.34 0 0 1-1.77-3.5 4.3 4.3 0 0 1 4.27-4.31h26.43a4.33 4.33 0 1 1 2.5 7.81h16.82a2.6 2.6 0 0 1 2.57 2.6 2.6 2.6 0 0 1-2.57 2.62h-51.91a2.6 2.6 0 0 1-2.58-2.61 2.6 2.6 0 0 1 2.58-2.61zM848.73 244.57h3.65a4.34 4.34 0 0 1 2.51-7.82h26.43a4.33 4.33 0 1 1 2.5 7.81h16.82a2.6 2.6 0 0 1 2.57 2.61 2.6 2.6 0 0 1-2.57 2.61h-51.91a2.6 2.6 0 0 1-2.58-2.6 2.6 2.6 0 0 1 2.58-2.61zM385.15 147.81h3.66a4.34 4.34 0 0 1 2.51-7.81h26.43a4.34 4.34 0 1 1 2.5 7.81h16.81a2.6 2.6 0 0 1 2.58 2.6 2.6 2.6 0 0 1-2.57 2.62h-51.92a2.6 2.6 0 0 1-2.57-2.61 2.6 2.6 0 0 1 2.57-2.61zM250.6 252.09h3.65a4.34 4.34 0 0 1 2.51-7.81h26.43a4.34 4.34 0 1 1 2.5 7.81h16.81a2.6 2.6 0 0 1 2.58 2.6 2.6 2.6 0 0 1-2.58 2.62h-51.9a2.6 2.6 0 0 1-2.58-2.61 2.6 2.6 0 0 1 2.57-2.61z" fill="#fff"/><path fill-rule="evenodd" clip-rule="evenodd" d="M212.18 408.22h12.84v-12.9h-12.84v12.9zm22.63 0h12.84v-12.9h-12.84v12.9zm26.49-.2h12.84v-12.9H261.3v12.9zm21.99.04h12.85v-12.9H283.3v12.9h-.01zm-70.8 22.76h12.85v-12.88h-12.85v12.89zm22.64 0h12.84v-12.88h-12.84v12.89zm26.48-.2h12.85v-12.89h-12.84v12.9zm22 .04h12.84v-12.89H283.6v12.9zM317.15 292.2H330v-12.72h-12.85v12.72zm22.64 0h12.84v-12.72h-12.84v12.72zm26.48-.2h12.84v-12.7h-12.84V292zm22 .04h12.84v-12.72h-12.84v12.72zm-70.8 22.46h12.84v-12.72h-12.84v12.72zm22.64 0h12.84v-12.72h-12.84v12.72zm26.48-.2h12.85v-12.72h-12.85v12.72zm22 .04h12.84v-12.72h-12.84v12.72zm-71.28 25.92h12.84v-12.72h-12.84v12.71zm22.63 0h12.85v-12.72h-12.84v12.71zm26.49-.2h12.84v-12.72h-12.84v12.72zm21.99.04h12.84v-12.72h-12.84v12.72zM429.86 249.97h11.02v-10.76h-11.02v10.76zm19.42 0h11.02v-10.76h-11.02v10.76zm-19.14 18.87h11.01v-10.77h-11.01v10.77zm19.41 0h11.02v-10.77h-11.01v10.77zM541.38 321.32h11.01v-10.75h-11.01v10.76zm19.41 0h11.02v-10.75H560.8v10.76zm-19.14 18.87h11.02v-10.77h-11.02v10.77zm19.42 0h11.02v-10.77h-11.02v10.77zM472.89 166.24h13.22v-12.97H472.9v12.98zm23.3 0h13.23v-12.97H496.2v12.98zm-22.97 22.74h13.23v-12.97h-13.22v12.97h-.01zm23.3 0h13.23v-12.97h-13.23v12.97zM823.53 319.07h16.38v-16.44h-16.38v16.44zm28.87 0h16.38v-16.44H852.4v16.44zm-28.46 28.83h16.38v-16.44h-16.38v16.44zm28.87 0h16.38v-16.44h-16.38v16.44z" fill="#F6F8FF"/><path fill-rule="evenodd" clip-rule="evenodd" d="M275.9 512.78h1.79v-21.32a21.38 21.38 0 0 1 21.41-21.23h84.54a21.38 21.38 0 0 1 21.42 21.22v21.33h2.08v-21.27a23.07 23.07 0 0 0-23.11-22.9h-85.02a23.07 23.07 0 0 0-23.11 22.9v21.27z" fill="#fff"/><path fill-rule="evenodd" clip-rule="evenodd" d="M297.36 512.78h88.04v-21.27a23.07 23.07 0 0 0-23.09-22.9h-41.86a23.07 23.07 0 0 0-23.1 22.9v21.27h.01zm1.8 0v-21.32a21.38 21.38 0 0 1 21.4-21.23h41.36a21.38 21.38 0 0 1 21.4 21.22v21.32h-84.17z" fill="#fff"/><path fill-rule="evenodd" clip-rule="evenodd" d="M341.4 462.42a2.27 2.27 0 0 1 2.3 2.22v37.57a2.27 2.27 0 0 1-2.3 2.22 2.27 2.27 0 0 1-2.3-2.22v-37.57a2.27 2.27 0 0 1 2.3-2.22z" fill="#fff"/><path fill-rule="evenodd" clip-rule="evenodd" d="M336.28 498.5h10.2c1.23 0 2.23 1 2.24 2.22v34.67h-14.67v-34.67c0-1.23 1-2.22 2.23-2.22z" fill="#6F8AFF"/><path fill-rule="evenodd" clip-rule="evenodd" d="M334.42 524.34h14.2c2 .01 3.63 1.63 3.64 3.63-.01 2-1.63 3.62-3.64 3.63h-14.2c-2 0-3.62-1.63-3.63-3.63 0-2 1.63-3.62 3.63-3.63z" fill="#6F8AFF"/><path fill-rule="evenodd" clip-rule="evenodd" d="M268.02 512.78h146.73a4.89 4.89 0 0 1 4.9 4.85 4.88 4.88 0 0 1-4.9 4.85H268.02a4.88 4.88 0 0 1-4.9-4.85 4.89 4.89 0 0 1 4.9-4.85z" fill="#8199FF"/><path fill-rule="evenodd" clip-rule="evenodd" d="M285.4 512.78h111.96a4.88 4.88 0 0 1 4.9 4.85 4.88 4.88 0 0 1-4.9 4.85H285.41a4.88 4.88 0 0 1-4.9-4.85 4.89 4.89 0 0 1 4.9-4.85z" fill="#6581FB"/><path fill-rule="evenodd" clip-rule="evenodd" d="M312.85 512.78h57.07a4.88 4.88 0 0 1 4.89 4.85 4.88 4.88 0 0 1-4.9 4.85h-57.06a4.88 4.88 0 0 1-4.89-4.85 4.89 4.89 0 0 1 4.9-4.85z" fill="#8199FF"/><path fill-rule="evenodd" clip-rule="evenodd" d="M619.87 452.65c-9.24 3.42-10.43 12.48-5 17.54 4.97 4.64 9.37 9.32 4.72 15.48-11.98 15.83-27.95 15.62-25.3 36.51 2.34 18.4 21.81 31.2 43.5 28.58 21.7-2.62 37.39-19.66 35.05-38.07-1.85-14.58-20.38-72.1-52.97-60.04z" fill="#90A3FF"/><path fill-rule="evenodd" clip-rule="evenodd" d="M628.16 543.93l4.5.17c10.98-29.61 5.81-58.12-10.9-85.72 13.17 28.67 17.6 57.23 6.4 85.55z" fill="#E6F3FF"/><path fill-rule="evenodd" clip-rule="evenodd" d="M639.86 486.58c7.64-5.5 11.74-8.17 14.23-12.13 2.05-3.27 3-7.42 3.9-14.74.44-3.47.15-9.86 8.11-7.95 6.36 1.51 5.55 19.91 2.79 28.93-3.4 11.06-17.96 9.96-.5 30.46 6.11 7.16 6.64 27.14-1.55 34.42-27.43 24.4-76.97-23.06-26.98-58.99z" fill="#7E87F4"/><path fill-rule="evenodd" clip-rule="evenodd" d="M659.48 468.62c-1.92 12.04-7.57 20.78-12.4 30.44-7.75 15.5-12.5 40.62 1.2 52.48.87.28 1.78.3 2.66.08-5-6.02-7.92-14.9-7.98-24.3 0-7.74 3.03-19.03 6.63-28.4 2.9-7.53 12.56-23.22 9.98-30.1l-.09-.2z" fill="#E6F3FF"/><path fill-rule="evenodd" clip-rule="evenodd" d="M459.72 452.3c5.3-.89 10.44 3.2 11.5 9.12 1.05 5.92-2.38 11.43-7.68 12.32-5.3.88-10.44-3.2-11.5-9.13-1.05-5.92 2.39-11.43 7.68-12.31z" fill="#FBD1A8"/><path fill-rule="evenodd" clip-rule="evenodd" d="M459.76 458.63s7.45-.27 10.08-2.03c2.63-1.77 2.3-2.23 1.88-3.18-.43-.95-2.37-.1-2.37-.1s-5.14 1.05-5.14 2.37c0 .55-1.2.61-2.1 1.13-.86.51-1.64 1.12-2.35 1.8zm-2.34 2.03s-.25 4.5-3.05 5.67c-.97.4-2.08 0-2.58-.9v-1.35l5.63-3.42z" fill="#654835"/><path fill-rule="evenodd" clip-rule="evenodd" d="M452.02 465.43a33.93 33.93 0 0 1 14.77-9.75l8.44-7.25.24-.23-.94-.9-7.27 6.57s-9.37-8.86-17.58 2.04c-2.46 3.27 2.34 9.52 2.34 9.52z" fill="#FF917C"/><path fill-rule="evenodd" clip-rule="evenodd" d="M460.13 473a3.36 3.36 0 0 1-1.02 1.67c-.61.44-1.3.78-2.03 1 0 0 3.7 4 6.1 4 2.8 0 4.39-4 4.39-4a2.1 2.1 0 0 1-1.7-.67 4.18 4.18 0 0 1-.33-2h-5.42.01z" fill="#FBCFAD"/><path fill-rule="evenodd" clip-rule="evenodd" d="M439.49 521.3s-3.05 1.54-4.74.67c-.92-.47-1.9 2.24-1.35 4a3.67 3.67 0 0 0 2.37 2 10.2 10.2 0 0 1 4.06-2.66l-.34-4zM463.85 532.3l-2.37 4.32c.5.75 1.2 1.33 2.03 1.67.74.05 1.47-.19 2.04-.67l2.03-3-3.73-2.33z" fill="#F4C9A0"/><path fill-rule="evenodd" clip-rule="evenodd" d="M434.75 521.97a5.35 5.35 0 0 0-2.7-.66c-.82.19-1.54.66-2.04 1.33l1.36 11.65s4.74-.8 5.07-3.66c.34-2.86-.33-2.66-.33-2.66a5.86 5.86 0 0 1-1.7-2.67 6.86 6.86 0 0 1 .34-3.33zM461.15 535.96a10.3 10.3 0 0 0-2.37 2.33c-.36.6-.48 1.31-.34 2l11.17 5h.67a4.18 4.18 0 0 0-1.69-5.34 41.43 41.43 0 0 1-3.38-2.67c-.73.38-1.57.5-2.37.34a3.91 3.91 0 0 1-1.7-1.66z" fill="#fff"/><path fill-rule="evenodd" clip-rule="evenodd" d="M453.36 503.98s-.29 7.05-3.72 10.66c-3.83 4.03-10.83 5.66-10.83 5.66v6.33s8.3-.04 14.21-3.66c5.77-3.54 9.14-10.66 9.14-10.66l1.7.33a15.55 15.55 0 0 1 1.69 7.99 47.96 47.96 0 0 1-2.71 11.66l5.07 2.8.34.2s4.85-8 5.42-14.66c.27-4.64-.79-9.26-3.05-13.32v-3.67l-17.26.34z" fill="#617EEE"/><path fill-rule="evenodd" clip-rule="evenodd" d="M458.2 474.98a11.78 11.78 0 0 0-4.05 4.1c-1.77 2.14-2.43 25.46-2.14 25.57h19.96c0-8.44 0-16.88-.46-24.8a15.17 15.17 0 0 0-3.96-4.42c.03-.02-1.6 4.13-4.03 4.04-2.66-.15-5.42-4.52-5.33-4.49z" fill="#FFCE3B"/><path fill-rule="evenodd" clip-rule="evenodd" d="M471.64 481.33l6.09 3.66 6.43-9.66 3.72 1.34s-4.52 9.48-6.77 13.32a5.48 5.48 0 0 1-2.03 1.66l-7.44-4.66v-5.66z" fill="#DEDFDC"/><path fill-rule="evenodd" clip-rule="evenodd" d="M455.4 483.33s13.47 9.25 14.55 9c3.03-.75 16.24-9.34 16.24-9.34l-2.03-4-14.22 8.33-12.52-8.32a2.47 2.47 0 0 0-3.72 1c-.84 1.82 1.7 3.33 1.7 3.33z" fill="#F7F8F6"/><path fill-rule="evenodd" clip-rule="evenodd" d="M485.81 482.97s3.56.4 4.56-2.03c1-2.43-1.66-4.05-1.66-4.05l-2.47 1.62s2.65-2.59 1.24-2.83c-1.4-.24-3.31 3.24-3.31 3.24l1.64 4.05z" fill="#FBD1A8"/><path fill-rule="evenodd" clip-rule="evenodd" d="M486.8 478.92s3.55-.49 3.88-3.09c.34-2.6-2.64-3.5-2.64-3.5l-1.85 1.34s1.76-2.32.34-2.21c-1.43.11-2.37 3.96-2.37 3.96l2.64 3.5z" fill="#FBD1A8"/><path d="M542.61 366.27s1.41 33.83-12 48.4c-13.4 14.58-31.32 29.72-41.52 59.37M541.69 375.4l9.23-8.21M541.69 374.5l-6.46-16.45" stroke="#fff"/><path fill-rule="evenodd" clip-rule="evenodd" d="M527.65 354.92l26-7.83 8.34 24.65a35.98 35.98 0 0 0-9.92-4.3 23.78 23.78 0 0 0-8.94 0c-1.84-3.16-4.19-6-6.94-8.42a23.9 23.9 0 0 0-8.54-4.1z" fill="url(#paint1_linear)"/><path fill-rule="evenodd" clip-rule="evenodd" d="M792.52 467.17h5.28v47.57h-5.28v-47.57zM634.92 473.83h5.28v47.57h-5.28v-47.57z" fill="#5C6BC6"/><path fill-rule="evenodd" clip-rule="evenodd" d="M623.6 514.74h11.32v46.13H623.6v-46.13zM796.31 514.74h11.32v46.13h-11.32v-46.13z" fill="#8199FF"/><path fill-rule="evenodd" clip-rule="evenodd" d="M622.8 463.42v11.15l185.61.75v-11.9H622.8zM622.8 481.27v11.16l185.62.74v-11.9H622.8zM623.55 497.63v11.16l185.62.74v-11.9H623.55zM615.22 514.74v11.15l200.77.75v-11.9H615.22z" fill="#FFBD56"/><path fill-rule="evenodd" clip-rule="evenodd" d="M742.76 444.18s-.58 6.98-5.15 8.38c-4.22 1.29 17-.2 17-.2a9.4 9.4 0 0 1-3.64-3.63 14.25 14.25 0 0 1-.92-4.55h-7.3z" fill="#F4C9A0"/><path fill-rule="evenodd" clip-rule="evenodd" d="M746.15 410.55c6.36 0 12 8.08 11.11 17.57-.73 7.7-2.13 11.32-4.76 15.5-2.4 3.82-10.4 2.48-12.3 0-2.88-3.76-4.8-8.2-5.55-15.76-.94-9.49 5.15-17.31 11.5-17.31z" fill="#FBD1A8"/><path fill-rule="evenodd" clip-rule="evenodd" d="M756.84 426.22s3.8-.57 2.96 4.07c-.94 5.19-3.21 3.67-3.21 3.67l.25-7.74zM735.25 426.26s-3.22-.79-2.5 3.45c.8 4.78 2.75 3.65 2.75 3.65l-.25-7.1z" fill="#E7B690"/><path fill-rule="evenodd" clip-rule="evenodd" d="M736 432.35a10.8 10.8 0 0 1-2.3-4.79 39.4 39.4 0 0 1-.86-8.94c.78.02 1.56-.2 2.2-.64.83-.68.31-6.65 5.59-7.9a34.21 34.21 0 0 0 7.24-2.26l-1.85 2.29s10.92-.93 11.93.07c.37.37-.36-.13-1.3.77-.96.9 2.35.9 2.5 2.36.16 1.46-.68-.16-2.59.73-1.02.47.85 1.22 1.81 3.84.81 2.64.94 5.45.38 8.16-.73 2.48-1.37 4.23-1.37 4.23s-1.23-9.15-3.47-9.54a24.48 24.48 0 0 0-6.08-.93c-1.64.12-3.25.55-4.72 1.27 0 0 2.3-2.03 2.33-2.8.02-.77-7.33 1.08-8.09 1.9-.34.36-.82.06-1.05 2.75-.28 3.28-.3 9.43-.3 9.43z" fill="#844F08"/><path fill-rule="evenodd" clip-rule="evenodd" d="M736.1 429.72c.32 2.57.8 5.12 1.45 7.63.6 1.35 3.09 2.44 5.68 1.5a8.77 8.77 0 0 1 4.06.2 7.7 7.7 0 0 0 4.19.24 6.43 6.43 0 0 0 3.36-3.97 61.66 61.66 0 0 0 2.09-5.68l.62.04c-.3 1.45-2.2 14.06-3.12 15.54a3.6 3.6 0 0 1-2.36 1.45c-1.11.2-2.24.28-3.37.23-1.49-.02-3.34-.14-5.85-.23-3.15-.1-4.71-1.25-5.37-2.63a5.64 5.64 0 0 1-.6-2.64c-.34-4.02-1.36-11.73-1.35-11.72l.57.04z" fill="#844F08"/><path fill-rule="evenodd" clip-rule="evenodd" d="M697.48 519.12a5.23 5.23 0 0 1 2.36-6.65 98.3 98.3 0 0 1 47.14-11.52c24.17-.03 39.12 7.66 45.9 12.26 2.57 1.7 3.54 5 2.3 7.82l-13.67 30.92h-8.09l5.94-33.3H711.9l8.1 31.74-8.1 2.6-14.43-33.88z" fill="#6979FF"/><path fill-rule="evenodd" clip-rule="evenodd" d="M771.2 550.05c1.9-.45 3.85-.63 5.8-.52 1.84.21 3.63.75 5.28 1.57l-1.05 4.71-10.56-1.04.53-4.72zM710.5 552.67l10.03-3.14 1.06 4.71c-1.26.24-2.5.59-3.7 1.05-1.45.6-2.86 1.3-4.22 2.09l-3.16-4.7z" fill="#EBEBEB"/><path fill-rule="evenodd" clip-rule="evenodd" d="M771.73 555.29c.99-.45 2.08-.63 3.16-.52 1.07.07 2.13.25 3.17.52l-3.17 8.9-4.75-.53 1.59-8.37zM715.26 556.86a21.7 21.7 0 0 1 2.63-1.57c.86-.4 1.74-.75 2.64-1.04l2.64 8.9a14.18 14.18 0 0 1-5.27.52l-2.64-6.8z" fill="#FBD1A8"/><path fill-rule="evenodd" clip-rule="evenodd" d="M769.09 564.7a9.67 9.67 0 0 0-2.11 4.2 6.05 6.05 0 0 0 1.05 3.65l24.8.53s3.8-3.88 0-5.76-7.17-.2-10.55-1.04a37.54 37.54 0 0 1-6.86-2.62l-5.8-.52-.53 1.57zM723.68 562.1a9.69 9.69 0 0 1 2.1 4.18 6.06 6.06 0 0 1-1.05 3.66l-24.69.52s-3.78-3.87 0-5.75c3.79-1.88 7.14-.21 10.5-1.05a37.2 37.2 0 0 0 6.84-2.61l5.77-.52.53 1.56zM725.04 456.92s1.17-3.34 6.9-4.6c2.1-.45 4.87-1.63 7.7-.82 4.04 1.16 8.56 2.33 12.5-.25 1.92-1.26 4.57-.11 6.7-.25 10.58-.5 21.19-.18 31.71.98a3.1 3.1 0 0 1 2.74 3.32l-1.12 15.06-6.19.54-2.38-10.22-14.22 4.02a5.85 5.85 0 0 0-3.93 3.71l-2.04 4.23c-.5 3.33-.8 6.68-.92 10.05l2.77 20.08s-10.44-1.48-18.45 0c-5.23.75-10.56.44-15.67-.91l.08-7.31-7.62 9.14s-6.19.36-7.14-4.84c-.5-2.71.96-13.46 3.33-23.65a215.66 215.66 0 0 1 5.25-18.28z" fill="#fff"/><path fill-rule="evenodd" clip-rule="evenodd" d="M724.33 467.4l9.56-8a2 2 0 0 1 2.9.33l12.35 16.6-8.76 7.5-16.05-16.42z" fill="#564E8E"/><path fill-rule="evenodd" clip-rule="evenodd" d="M735.5 488.37l6.8-9.38v-11.26s-7.62 4.07-9.73 5.63c-2.1 1.56-5.83-3.75-5.83-3.75l-.98 2.81 2.91 3.29.49 5.62 6.33 7.04zM792.46 470.43l2.31 5.19a49.67 49.67 0 0 0-.46 9.33l-2.78 4.67-2.78 1.03-4.17-8.3-.47-4.66-2.78 4.15-1.39-2.07 5.56-8.82 6.96-.52z" fill="#FBD1A8"/><path fill-rule="evenodd" clip-rule="evenodd" d="M235.47 369.86a13.04 13.04 0 0 1-1.4 4.62 6.35 6.35 0 0 1-2.78 2.3s4.82 3.24 8.83 2.77c3.9-.46 6.97-4.61 6.97-4.61a10.47 10.47 0 0 1-3.72-2.31 8.97 8.97 0 0 1-1.86-3.7l-6.04.93z" fill="#F4C9A0"/><path fill-rule="evenodd" clip-rule="evenodd" d="M238.49 339.42c5.26 0 9.53 7.02 9.53 15.68a19.9 19.9 0 0 1-2.8 9.69c-1.74 3.3-3.86 6-6.73 6-2.87 0-4.53-2.2-6.27-5.54-1.43-2.74-3.25-6.25-3.25-10.15 0-8.66 4.26-15.68 9.52-15.68zM216.42 399.38l-19.05 42.43a26.16 26.16 0 0 0-7.44 3.22c-3.14 2.38-5.11 7.38-5.11 7.38s3.14-2.68 5.11-4.15a7.15 7.15 0 0 1 2.32-1.38l.93 2.76.47 1.85s1.13 3.56 1.86.46c.73-3.1-.47-3.69-.47-3.69.28-.87.76-1.65 1.4-2.3-.63.4 3.72-1.85 3.72-1.85l24.16-41.04-7.9-3.69z" fill="#FBD1A8"/><path fill-rule="evenodd" clip-rule="evenodd" d="M221.53 381.85c-2.33 4.3-8.37 17.53-8.37 17.53 1.81.89 3.53 1.97 5.12 3.22a38.92 38.92 0 0 1 4.64 4.61 11.6 11.6 0 0 0 2.32-4.6c.16-1.93 2.49 1.46 2.8 3.21.38 5.07.38 10.16 0 15.22-.47 2.46-8.41 11.74-9.97 16.04-1.55 4.31-4.98 20.55-11.41 24.09-6.43 3.54-17.81-.77-20.91.46a13.56 13.56 0 0 0-8.37 14.3c1.01 8.6 8.37 2.76 8.37 2.76s-.39-.07-2.33 3.7c-1.93 3.76 1.4 10.69 12.09 13.83 10.68 3.14 10.68 6.92 16.72 12.92 3.12 3.1 19.13 14.44 32.53 14.3 15.4-.18 34.19-10.9 34.39-13.38.86-10.69-3.22-28.53-13.48-59.5a146.95 146.95 0 0 0-12.08-26.75s-2.56-12.84-.93-20.3c1.63-7.45 3.25-4.6 3.25-4.6s3.18 4.15 4.65 4.6c.75.24 1.9-1.72 3.72-4.14 1.74-2.31 4.18-5.08 4.18-5.08s-7.51-12.3-10.23-14.3c-2.71-1.99-10.69-4.6-10.69-4.6-2.28 1.87-5 3.13-7.9 3.68-2.74.11-5.47-.52-7.89-1.83 0 0-7.9.3-10.22 4.61z" fill="#fff"/><path d="M235.47 391.08l.47 15.68 9.75.92v-16.6h-10.22z" fill="#564E8E"/><path fill-rule="evenodd" clip-rule="evenodd" d="M267.76 394.62s5.2 14.05 6.52 16.55c1.33 2.5-1.4 7.22-7.45 5.51-6.05-1.7-16.31-10.56-16.31-10.56-2.19-1-4.63-1.32-7-.92-3.65.36-7.8-4.8-9.47-7.14-.5-.69-.78-1.13-.78-1.13s-.1-2.38 3.73.46c7.54 5.6 7 2.3 7 2.3.49-1.32.65-2.75.46-4.14 0 0 .46-3.48 2.33 0 1.21 2.5 2.96 4.7 5.13 6.43a61.4 61.4 0 0 0 13.05 6.44l-3.73-5.98 6.52-7.82zM224.78 517.45l9.3 54.42s-3.41-.15-9.3 6c-5.88 6.15-2.78 8.3-2.78 8.3l18.58-8.76-.93-54.89s-4.56-1-8.36-2.3a49.58 49.58 0 0 1-6.5-2.77zM260.57 519.3s17.66 39.04 21.84 48.42c4.18 9.38 3.25 11.07 3.25 11.07l22.77 3.22s7.12-2.3-6.5-7.84c-13.64-5.53-9.76-1.38-9.76-1.38l-18.6-59.03a71.98 71.98 0 0 1-6.5 3.22c-2.13.89-4.3 1.66-6.5 2.31z" fill="#FBD1A8"/><path fill-rule="evenodd" clip-rule="evenodd" d="M231.75 557.58a9.56 9.56 0 0 0 4.65 1.84c1.7 0 4.18-2.3 4.18-2.3v15.21s-7.9 8.35-13.47 6.46c-1.13-.38 6.04-6.92 6.04-6.92l-1.4-14.3zM278.22 558.5c1.56.22 3.16.06 4.65-.46a12.1 12.1 0 0 0 3.71-2.77l5.58 16.14s13.24 4.62 11.62 5.54c-1.62.91-18.12-1.85-18.12-1.85l-7.44-16.6z" fill="#fff"/><path fill-rule="evenodd" clip-rule="evenodd" d="M292.16 570.95c3.48.84 6.9 1.91 10.23 3.22 4.17 1.71 7.7 4.06 7.9 5.08.68 3.6-4.2 3.23-10.23 2.3-6.59-1.01-14.4-2.77-14.4-2.77a10.3 10.3 0 0 1-.47-2.3c-.06-.92-.06-1.85 0-2.77 0 0-.34 1.86 9.3 2.77 2.35.22 6.13.71 8.82 0 2.14-.56-11.15-5.53-11.15-5.53zM241.07 572.48c.33.75.54 1.55.65 2.36a4.7 4.7 0 0 1-.4 2.11 37.6 37.6 0 0 1-6.76 4.32c-5.37 3.2-13.15 4.94-13.17 4.54a3.46 3.46 0 0 1-.55-1.82v-.45a5.83 5.83 0 0 1 .34-1.61c.38-1 .92-1.91 1.6-2.73 2.37-3.13 10.1-7 10.1-6.92l1.42-.86c.04-.08-8.48 6.76-7.14 6.96 7.2-.7 13.96-5.96 13.91-5.9z" fill="#6280FF"/><path fill-rule="evenodd" clip-rule="evenodd" d="M237.74 417.73c5.37.71 13 .49 14.98 0 .66 1.72.94 3.13.94 5.47-4.01 1.14-9.36.78-13.64.73-4-.25-8.25-1.68-11.9-3.07-.15-2.15.31-4.14.26-6.25l.93.78s3.07 1.63 8.43 2.34z" fill="#FF907B"/><path fill-rule="evenodd" clip-rule="evenodd" d="M127.18 436.3s-15.24 1.79-26.02 10.6c-10.35 8.48-16.26 24-16.26 24s-9.58 5.91-7.96 8.46c.33.52.63 1.1.99 1.68 5.3 8.8 7.21 12.37 10.22 18.45a310.35 310.35 0 0 0 6.5 12.45c2.75 3.79 18.6 2.3 18.6 2.3.28 1.6.75 3.14 1.4 4.62.73 1.5 1.66 2.9 2.78 4.15l39.96-.46a16.47 16.47 0 0 0 2.32-3.7c.53-1.32.84-2.72.93-4.14a69 69 0 0 0 10.23.92c9.38 0 11.47.5 19.52-20.3a173.15 173.15 0 0 0 6.97-24.9h-69.71l-.47-34.13z" fill="#617FF3"/><path fill-rule="evenodd" clip-rule="evenodd" d="M85.36 493.95l105.48.46-1.4 4.15H87.23l-1.88-4.6z" fill="#F8FAFF"/><path fill-rule="evenodd" clip-rule="evenodd" d="M146.33 522.45l-36.7 38.29 3.24 3.22 38.1-39.2a5.03 5.03 0 0 0-1.85-2.31 4.18 4.18 0 0 0-2.79 0z" fill="#DCDEEE"/><path fill-rule="evenodd" clip-rule="evenodd" d="M194.56 450.14s-54.84 54.74-65.99 66.41a7.65 7.65 0 0 0-1.39 4.15 30.95 30.95 0 0 0 2.79 3.22c8.49 8.33 36.7 35.52 36.7 35.52l-2.78 2.76s-34.13-30.72-42.75-38.74a14.5 14.5 0 0 1-2.32-3.22 3.52 3.52 0 0 1 .46-3.22c11.15-11.5 72.03-71.49 72.03-71.49s2.48-.17 3.25.92c.84 1.2 0 3.69 0 3.69z" fill="#E7EBFF"/><path fill-rule="evenodd" clip-rule="evenodd" d="M104.2 553.87a16.83 16.83 0 0 1 16.65 16.95A16.83 16.83 0 0 1 104 587.57a16.83 16.83 0 0 1-16.76-16.85 16.91 16.91 0 0 1 16.96-16.85z" fill="#fff"/><path d="M103.7 583.1a12.8 12.8 0 0 0 12.78-12.82 12.8 12.8 0 0 0-12.79-12.82 12.8 12.8 0 0 0-12.78 12.82 12.8 12.8 0 0 0 12.78 12.81z" fill="#F7F8FF"/><path d="M103.67 576.11a5.83 5.83 0 1 0-.01-11.65 5.83 5.83 0 0 0 .01 11.65z" fill="#BBC4FF"/><path d="M172 587.26c9.35 0 16.94-7.6 16.94-16.98S181.35 553.3 172 553.3c-9.36 0-16.94 7.6-16.94 16.98s7.58 16.98 16.94 16.98z" fill="#fff"/><path d="M171.54 582.66a12.8 12.8 0 0 0 12.79-12.82 12.8 12.8 0 0 0-12.79-12.81 12.8 12.8 0 0 0-12.78 12.81 12.8 12.8 0 0 0 12.78 12.82z" fill="#F7F8FF"/><path d="M171.52 575.65a5.83 5.83 0 1 0-.01-11.65 5.83 5.83 0 0 0 .01 11.65z" fill="#BBC4FF"/><path fill-rule="evenodd" clip-rule="evenodd" d="M239.82 340.41s3 4.89-10.28 12.04c-2.03 1.1-.2 6.2 1.4 9.27a70.3 70.3 0 0 0 5.14 8.34s.1 5.93-3.73 8.33c-3.83 2.41-10.47 1.3-13.55 5.1s-5.6-3.43-12.14-.93c-6.54 2.5-10.18-10.74-.94-18.99 9.25-8.24 15.7-9.45 17.75-15.29 2.06-5.83 5.8-13.15 11.68-12.5 5.88.65 4.67 4.63 4.67 4.63z" fill="#5B3720"/><path fill-rule="evenodd" clip-rule="evenodd" d="M235.7 338.43c-5.94 0-8.36 13.42-10.77 13.42 6.62 0 11.6-8.71 11.6-14.09l-.05.28M219.6 355.69c-7.53 12.2-13.96 6.2-13.96 22.62 0-8.71 4.65-12.16 11.03-16.9l5.08-7.12.01-.03" fill="#6E452C"/><path fill-rule="evenodd" clip-rule="evenodd" d="M238.29 338.98a2.31 2.31 0 0 1 2.77-2.76c3.25.37 8.72 2.86 14.84 7.81 3.87 3.13.46 8.73.46 8.73s-.1-.83-.93 3.67c-.83 4.5 6.3 1.65 5.1 12.86-1.2 11.2 7.6 19.48-2.77 17.91-10.38-1.57-2.97-6.7-9.74-11.48s-3.78-2.24-7.41-5.51c-.44-.4 4.07-4.17 6.02-8.27 1.33-2.8 1.92-6.96.93-9.18-1.63-3.65-3.1-3.57-5.56-6.89-6.2-8.34-2.78-5.5-2.78-5.5l-.93-1.4z" fill="#5B3720"/><path fill-rule="evenodd" clip-rule="evenodd" d="M242.88 339.94l1.87-.94 7.46 9.42c-6.41 0-6.28-8.43-12.22-8.43l.05.28" fill="#73492F"/><path fill-rule="evenodd" clip-rule="evenodd" d="M253.75 356.94c-.84 4.8 3.65 3.43 4.47 7.05l.61 10.44 2.52 7.2s-4.29-5.6-4.54-7.82c-1-8.96-4.43-10.2-4.43-19.86l.2.38" fill="#72482F"/><path opacity=".38" fill-rule="evenodd" clip-rule="evenodd" d="M596 55l137-2.84-21.43-7.59s-4.44-20.85-11.19-20.85c-6.75 0-9.64 7.18-9.64 11.37 0 4.2-4.34-36.15-23.72-35.07-19.38 1.09-22.95 19.16-20.7 31.86 0 0-5.76-20.62-18.44-18.59-12.68 2.04-20.7 14.02-20.7 33.55L596 55z" fill="#C7DBFF"/><defs><linearGradient id="paint0_linear" x1="962.24" y1="626.5" x2="962.24" y2="94.02" gradientUnits="userSpaceOnUse"><stop stop-color="#EDF3FF"/><stop offset="1" stop-color="#fff"/></linearGradient><linearGradient id="paint1_linear" x1="536.41" y1="342.74" x2="529.8" y2="368.78" gradientUnits="userSpaceOnUse"><stop stop-color="#FFCB44"/><stop offset="1" stop-color="#FF8169"/></linearGradient></defs></svg>